<?xml version="1.0" encoding="utf-8"?>
<!-- Generator: Adobe Illustrator 24.1.2, SVG Export Plug-In . SVG Version: 6.00 Build 0)  -->
<svg version="1.1" id="instagram" xmlns="http://www.w3.org/2000/svg" xmlns:xlink="http://www.w3.org/1999/xlink" x="0px" y="0px"
	 viewBox="0 0 16 16" style="enable-background:new 0 0 16 16;" xml:space="preserve">
<style type="text/css">
	.st0{fill:#FFFFFF;}
</style>
<path class="st0" d="M10.9,0.3H5.1c-2.7,0-4.8,2.1-4.8,4.8v5.7c0,2.7,2.1,4.8,4.8,4.8h5.7c2.7,0,4.8-2.1,4.8-4.8V5.1
	C15.6,2.5,13.5,0.3,10.9,0.3z M14.2,10.9c0,1.8-1.5,3.4-3.4,3.4H5.1c-1.8,0-3.4-1.5-3.4-3.4V5.1c0-1.8,1.5-3.4,3.4-3.4h5.7
	c1.8,0,3.4,1.5,3.4,3.4C14.2,5.1,14.2,10.9,14.2,10.9z"/>
<path class="st0" d="M8,4.2C5.9,4.2,4.2,5.9,4.2,8S6,11.8,8,11.8S11.8,10,11.8,8S10.1,4.2,8,4.2z M8,10.3c-1.3,0-2.3-1-2.3-2.3
	s1-2.3,2.3-2.3s2.3,1,2.3,2.3S9.3,10.3,8,10.3z"/>
<ellipse class="st0" cx="12.1" cy="3.9" rx="0.5" ry="0.5"/>
</svg>
