<?xml version="1.0" encoding="utf-8"?>
<!-- Generator: Adobe Illustrator 24.1.2, SVG Export Plug-In . SVG Version: 6.00 Build 0)  -->
<svg version="1.1" id="phone" xmlns="http://www.w3.org/2000/svg" xmlns:xlink="http://www.w3.org/1999/xlink" x="0px" y="0px"
	 viewBox="0 0 24 24" style="enable-background:new 0 0 24 24;" xml:space="preserve">
<style type="text/css">
	.st0{opacity:0;fill:#FFFFFF;}
	.st1{fill:#FFFFFF;}
</style>
<g>
	<g>
		<g>
			<g>
				<path class="st0" d="M23.6,18.3c0,2.9-2.4,5.3-5.4,5.3c-9.9,0-17.8-8-17.9-17.9c0-2.9,2.4-5.3,5.3-5.3c0.3,0,0.6,0,0.9,0.1
					c0.3,0,0.6,0.1,0.8,0.2c0.4,0.1,0.7,0.5,0.8,0.9l1.6,7c0.1,0.4,0,0.8-0.3,1.1c-0.1,0.2-0.2,0.2-1.6,0.9c1.1,2.5,3.2,4.5,5.6,5.7
					c0.8-1.4,0.8-1.5,0.9-1.6c0.3-0.3,0.7-0.4,1.1-0.3l7,1.6c0.4,0.1,0.7,0.4,0.8,0.8c0.1,0.3,0.2,0.6,0.2,0.8
					C23.6,17.8,23.6,18,23.6,18.3z"/>
			</g>
			<path class="st1" d="M23.6,18.3c0,2.9-2.4,5.3-5.4,5.3c-9.9,0-17.8-8-17.9-17.9c0-2.9,2.4-5.3,5.3-5.3c0.3,0,0.6,0,0.9,0.1
				c0.3,0,0.6,0.1,0.8,0.2c0.4,0.1,0.7,0.5,0.8,0.9l1.6,7c0.1,0.4,0,0.8-0.3,1.1c-0.1,0.2-0.2,0.2-1.6,0.9c1.1,2.5,3.2,4.5,5.6,5.7
				c0.8-1.4,0.8-1.5,0.9-1.6c0.3-0.3,0.7-0.4,1.1-0.3l7,1.6c0.4,0.1,0.7,0.4,0.8,0.8c0.1,0.3,0.2,0.6,0.2,0.8
				C23.6,17.8,23.6,18,23.6,18.3z"/>
		</g>
	</g>
</g>
</svg>
