<?xml version="1.0" encoding="utf-8"?>
<!-- Generator: Adobe Illustrator 24.1.2, SVG Export Plug-In . SVG Version: 6.00 Build 0)  -->
<svg version="1.1" id="whatsapp" xmlns="http://www.w3.org/2000/svg" xmlns:xlink="http://www.w3.org/1999/xlink" x="0px" y="0px"
	 viewBox="0 0 2489 2500" style="enable-background:new 0 0 2489 2500;" xml:space="preserve">
<style type="text/css">
	.st0{fill-rule:evenodd;clip-rule:evenodd;fill:#FFFFFF;}
</style>
<path class="st0" d="M2126.3,363.3C1892.3,129.2,1581.2,0.1,1249.7,0C566.7,0,10.8,555.7,10.5,1238.7
	c-0.1,218.3,57,431.5,165.4,619.3L0.1,2500L657,2327.7c181,98.7,384.8,150.7,592.2,150.8h0.5c683,0,1238.9-555.8,1239.2-1238.8
	C2489,908.7,2360.3,597.5,2126.3,363.3 M1249.7,2269.3h-0.4c-184.8-0.1-366.1-49.7-524.2-143.5l-37.6-22.3l-389.8,102.2l104.1-380
	l-24.5-39c-103.1-163.9-157.6-353.4-157.5-548C219.9,671.1,682,209.2,1250.1,209.2c275.1,0.1,533.7,107.3,728.2,302
	s301.5,453.3,301.4,728.4C2279.4,1807.4,1817.4,2269.3,1249.7,2269.3 M1814.7,1498.1c-31-15.5-183.2-90.4-211.6-100.7
	c-28.4-10.3-49-15.5-69.7,15.5c-20.6,31-80,100.7-98,121.4c-18.1,20.7-36.1,23.2-67.1,7.7c-31-15.5-130.7-48.2-249-153.6
	c-92-82.1-154.2-183.4-172.3-214.4c-18.1-31-1.9-47.7,13.6-63.2c13.9-13.9,31-36.2,46.4-54.2c15.5-18.1,20.6-31,31-51.6
	c10.3-20.7,5.2-38.7-2.6-54.2c-7.7-15.5-69.7-167.9-95.5-229.8c-25.1-60.4-50.7-52.2-69.7-53.1c-18-0.9-38.7-1.1-59.3-1.1
	c-20.6,0-54.2,7.7-82.6,38.7C700,736.4,620,811.3,620,963.6s110.9,299.5,126.4,320.2c15.5,20.7,218.3,333.3,528.9,467.4
	c73.9,31.9,131.5,50.9,176.5,65.2c74.2,23.6,141.7,20.2,195,12.3c59.5-8.9,183.2-74.9,209-147.2c25.8-72.3,25.8-134.3,18.1-147.2
	C1866.3,1521.4,1845.6,1513.6,1814.7,1498.1"/>
</svg>
